HIERARCHY
ROOT Model_Hips
{
	OFFSET 0.000000 96.915077 0.000000
	CHANNELS 6 Xposition Yposition Zposition Xrotation Yrotation Zrotation
	JOINT Model_Spine
	{
		OFFSET 0.000000 11.137703 -1.289900
		CHANNELS 3 Xrotation Yrotation Zrotation
		JOINT Model_Spine1
		{
			OFFSET 0.000000 12.993942 -1.504922
			CHANNELS 3 Xrotation Yrotation Zrotation
			JOINT Model_Spine2
			{
				OFFSET 0.000000 14.850220 -1.719911
				CHANNELS 3 Xrotation Yrotation Zrotation
				JOINT Model_Neck
				{
					OFFSET 0.000000 16.706543 -1.934903
					CHANNELS 3 Xrotation Yrotation Zrotation
					JOINT Model_Head
					{
						OFFSET 0.000000 10.471298 2.002100
						CHANNELS 3 Xrotation Yrotation Zrotation
						JOINT Model_HeadTop_End
						{
							OFFSET 0.000000 20.842606 3.985100
							CHANNELS 3 Xrotation Yrotation Zrotation
							End Site
							{
								OFFSET 0.000000 21.220154 0.000000
							}
						}
					}
				}
				JOINT Model_LeftShoulder
				{
					OFFSET 7.008500 14.768600 -1.919946
					CHANNELS 3 Xrotation Yrotation Zrotation
					JOINT Model_LeftArm
					{
						OFFSET 14.126271 -3.718048 0.029937
						CHANNELS 3 Xrotation Yrotation Zrotation
						JOINT Model_LeftForeArm
						{
							OFFSET 28.282801 0.000000 0.000000
							CHANNELS 3 Xrotation Yrotation Zrotation
							JOINT Model_LeftHand
							{
								OFFSET 26.204689 0.000000 0.000000
								CHANNELS 3 Xrotation Yrotation Zrotation
								End Site
								{
									OFFSET 26.204704 0.000000 0.000000
								}
							}
						}
					}
				}
				JOINT Model_RightShoulder
				{
					OFFSET -7.008500 14.768555 -1.949840
					CHANNELS 3 Xrotation Yrotation Zrotation
					JOINT Model_RightArm
					{
						OFFSET -14.126281 -3.718018 -0.029932
						CHANNELS 3 Xrotation Yrotation Zrotation
						JOINT Model_RightForeArm
						{
							OFFSET -28.283798 0.000000 -0.000001
							CHANNELS 3 Xrotation Yrotation Zrotation
							JOINT Model_RightHand
							{
								OFFSET -26.204193 0.000000 -0.000001
								CHANNELS 3 Xrotation Yrotation Zrotation
								End Site
								{
									OFFSET -26.204208 0.000000 -0.000001
								}
							}
						}
					}
				}
			}
		}
	}
	JOINT Model_LeftUpLeg
	{
		OFFSET 8.327700 -6.193199 -0.402800
		CHANNELS 3 Xrotation Yrotation Zrotation
		JOINT Model_LeftLeg
		{
			OFFSET 0.735802 -42.108742 -0.610721
			CHANNELS 3 Xrotation Yrotation Zrotation
			JOINT Model_LeftFoot
			{
				OFFSET -0.735806 -36.833748 -0.172876
				CHANNELS 3 Xrotation Yrotation Zrotation
				JOINT Model_LeftToeBase
				{
					OFFSET -0.565857 -11.977769 16.297714
					CHANNELS 3 Xrotation Yrotation Zrotation
					JOINT Model_LeftToe_End
					{
						OFFSET -0.111712 -0.312793 7.857784
						CHANNELS 3 Xrotation Yrotation Zrotation
						End Site
						{
							OFFSET -0.111712 -0.312793 7.857784
						}
					}
				}
			}
		}
	}
	JOINT Model_RightUpLeg
	{
		OFFSET -8.327700 -6.193199 -0.516500
		CHANNELS 3 Xrotation Yrotation Zrotation
		JOINT Model_RightLeg
		{
			OFFSET -0.735785 -42.108738 -0.434061
			CHANNELS 3 Xrotation Yrotation Zrotation
			JOINT Model_RightFoot
			{
				OFFSET 0.735776 -36.833748 -0.021630
				CHANNELS 3 Xrotation Yrotation Zrotation
				JOINT Model_RightToeBase
				{
					OFFSET 0.565817 -11.977745 15.903093
					CHANNELS 3 Xrotation Yrotation Zrotation
					JOINT Model_RightToe_End
					{
						OFFSET 0.111702 -0.312791 7.811342
						CHANNELS 3 Xrotation Yrotation Zrotation
						End Site
						{
							OFFSET 0.111702 -0.312791 7.811342
						}
					}
				}
			}
		}
	}
}
MOTION
Frames: 7
Frame Time: 0.016667
16.838095 80.527023 356.923462 -178.664239 46.329771 169.497729 7.057210 0.632491 0.678370 14.136092 1.320571 0.090808 14.136089 1.320572 0.090806 -1.751041 1.547953 -0.631840 -1.751051 1.547981 -0.631848 0.000001 -0.000003 0.000002 3.045211 -8.534294 -14.029716 -2.344900 -29.316961 -35.202587 0.199396 -74.636571 0.264197 -0.000001 0.000002 0.000000 -0.200650 -3.841514 11.345522 2.044283 1.972098 50.223508 -0.049121 59.593387 -0.106599 0.000003 -0.000002 0.000002 -55.852683 -2.442874 13.650634 96.454033 -3.444465 -3.036655 -16.280958 3.131543 4.453639 -7.205862 -0.038519 0.078148 0.000001 -0.000002 -0.000000 -10.141143 -15.244016 -26.218173 40.955372 -1.689718 1.144102 -18.931819 -9.798588 30.690154 -8.875144 -0.171076 0.425807 -0.000001 0.000001 0.000000 
17.454992 82.046379 357.706085 -180.008229 44.224256 171.062074 6.730977 0.603768 0.512135 13.484206 1.263020 -0.208545 13.484200 1.263018 -0.208536 -1.751079 1.449700 -0.502737 -1.751087 1.449696 -0.502733 -0.000002 -0.000001 0.000001 3.213939 -8.429136 -13.120027 -1.070833 -29.904897 -34.041011 0.165943 -72.173386 0.237505 0.000000 0.000003 -0.000000 -0.226429 -4.436390 10.320924 2.846623 1.620650 50.241758 -0.048865 60.263128 -0.109890 0.000000 -0.000001 -0.000001 -54.421622 -4.952135 12.542406 94.886388 -4.541405 -3.010614 -14.087908 7.036977 4.524431 -7.316849 -0.038760 0.078366 0.000001 -0.000001 0.000001 -7.922658 -16.002781 -24.375688 37.024243 -1.757580 1.060106 -17.127282 -12.679015 29.572650 -8.114015 -0.172577 0.427690 0.000000 0.000001 0.000000 
18.025110 83.558746 358.272369 -181.180207 42.237982 172.430188 6.417362 0.576864 0.351711 12.856694 1.215999 -0.462750 12.856703 1.216006 -0.462758 -1.728311 1.356548 -0.409974 -1.728290 1.356569 -0.409981 -0.000004 0.000001 -0.000002 3.395575 -8.190128 -12.143293 0.243514 -30.488540 -33.019160 0.141701 -70.027286 0.219210 -0.000002 -0.000002 0.000000 -0.246312 -5.051030 9.479222 3.579330 1.173348 50.423089 -0.051950 60.776492 -0.109533 0.000002 -0.000000 0.000000 -52.503951 -7.761614 11.326542 92.509141 -5.742401 -2.968539 -11.112444 10.308520 4.031059 -8.620208 -0.014636 -1.057975 0.000001 0.000001 0.000001 -5.379467 -16.732476 -22.481387 32.324553 -2.100849 0.920344 -14.822059 -15.037430 28.226342 -7.080112 -0.174746 0.430303 0.000000 -0.000000 0.000000 
18.480247 85.057709 358.684448 -182.145408 40.426401 173.583889 6.138479 0.552953 0.202590 12.297413 1.179625 -0.642591 12.297406 1.179630 -0.642588 -1.703077 1.279647 -0.386848 -1.703057 1.279657 -0.386856 -0.000002 -0.000000 -0.000000 3.584864 -7.744613 -11.185183 1.233040 -30.750266 -32.486306 0.125500 -68.350570 0.207985 0.000000 0.000001 -0.000001 -0.273689 -5.541315 8.845225 3.977714 0.560959 50.688227 -0.057138 60.903526 -0.107016 0.000002 -0.000000 0.000001 -49.861279 -10.640825 10.261614 88.812328 -6.879107 -2.901799 -7.778080 12.149266 2.173296 -12.709131 0.446602 -4.864146 0.000003 0.000003 -0.000001 -3.247267 -17.190066 -20.714135 27.951569 -2.882671 0.579549 -12.750656 -16.747988 26.115662 -5.908166 -0.176971 0.433263 -0.000000 0.000000 -0.000000 
18.833523 86.479240 358.997406 -182.888997 38.845574 174.532507 5.896825 0.528963 0.068368 11.811900 1.147384 -0.765236 11.811908 1.147396 -0.765240 -1.691308 1.220382 -0.418589 -1.691327 1.220362 -0.418586 -0.000001 -0.000003 0.000002 3.773200 -7.161972 -10.274634 1.950932 -30.649746 -32.311986 0.114694 -67.133424 0.201678 0.000001 -0.000003 -0.000000 -0.306727 -5.926119 8.360073 4.155519 -0.192471 50.955376 -0.062170 60.889975 -0.104489 0.000001 -0.000001 -0.000000 -46.519169 -13.453180 9.440879 84.058523 -7.693330 -2.797125 -5.327809 12.714862 -0.558280 -16.539600 1.448813 -8.561944 -0.000001 0.000003 -0.000001 -1.634572 -17.362361 -19.278557 24.393884 -3.369253 0.276491 -10.390916 -17.654530 24.595346 -4.665412 -0.179475 0.436500 -0.000000 -0.000000 0.000000 
19.039467 87.750443 359.256683 -183.463935 37.479014 175.364328 5.692234 0.500641 -0.044963 11.400172 1.106930 -0.840676 11.400154 1.106922 -0.840670 -1.718213 1.187584 -0.514665 -1.718183 1.187577 -0.514675 -0.000001 0.000003 -0.000000 3.950560 -6.464980 -9.464219 2.264605 -29.994759 -32.545073 0.109742 -66.507963 0.200806 -0.000000 -0.000002 -0.000001 -0.347887 -6.157138 7.991992 4.094639 -1.142501 51.106255 -0.064018 60.933675 -0.104542 -0.000000 -0.000001 0.000001 -42.498755 -15.966853 8.882135 78.132187 -7.860835 -2.649187 -5.285234 11.880537 -3.824950 -22.449563 1.878891 -6.862727 -0.000000 -0.000002 -0.000000 -1.004508 -17.169144 -18.544799 22.517563 -3.703724 0.145642 -8.439291 -17.487168 22.907466 -3.442576 -0.181734 0.439676 0.000000 0.000000 0.000000 
19.120010 88.855164 359.474640 -183.946721 36.254286 176.100978 5.500167 0.469154 -0.124445 11.013622 1.055999 -0.870498 11.013629 1.055997 -0.870497 -1.774578 1.170630 -0.635903 -1.774529 1.170631 -0.635912 -0.000001 0.000000 0.000000 4.116630 -5.725726 -8.761785 2.364462 -28.925984 -32.997590 0.106524 -66.208910 0.201442 0.000001 -0.000002 -0.000002 -0.395204 -6.293160 7.688407 3.925438 -2.120049 51.167747 -0.064325 60.955108 -0.105625 0.000001 -0.000001 0.000001 -38.205155 -18.165663 8.672967 71.963918 -7.308546 -2.479747 -8.269436 10.544506 -6.736956 -23.270427 1.142971 -4.040569 0.000000 0.000002 -0.000000 -1.307482 -16.747059 -18.364620 22.180425 -3.876033 0.115102 -6.962849 -16.517023 21.285197 -3.069254 -0.199378 1.154814 0.000000 0.000001 0.000000 
